<svg xmlns="http://www.w3.org/2000/svg" width="1600" height="900"><style>text{font-family:Microsoft YaHei,"微软雅黑",sans-serif;fill:#182033}.t{font-size:48px;font-weight:bold}.h{font-size:30px;font-weight:bold}.b{font-size:24px;fill:#586579}.card{fill:#fff;stroke:#17745f;stroke-width:1.7}.alt{fill:#eef4fa;stroke:#6f99c5;stroke-width:1.7}.key{fill:#fff4ed;stroke:#f47c3c;stroke-width:2}.line{stroke:#9cb2ad;stroke-width:2}</style><rect width="1600" height="900" fill="white"/><text x="65" y="75" class="t">产品V3.0能力演进地图</text><line x1="65" y1="105" x2="1535" y2="105" stroke="#17745f" stroke-width="2"/><circle cx="800" cy="430" r="155" fill="#fff4ed" stroke="#f47c3c" stroke-width="3"/><text x="800" y="405" text-anchor="middle" class="h">主动发现 · 深度分析</text><text x="800" y="445" text-anchor="middle" class="h">辅助决策 · 协同闭环</text><text x="800" y="485" text-anchor="middle" class="b">从“回答问题”走向“理解经营目标”</text><g class="line"><line x1="690" y1="320" x2="485" y2="220"/><line x1="800" y1="275" x2="800" y2="210"/><line x1="910" y1="320" x2="1115" y2="220"/><line x1="690" y1="540" x2="485" y2="640"/><line x1="800" y1="585" x2="800" y2="650"/><line x1="910" y1="540" x2="1115" y2="640"/></g><rect x="165" y="145" width="390" height="155" rx="18" class="card"/><text x="360" y="190" text-anchor="middle" class="h">智能分析深化</text><text x="360" y="232" text-anchor="middle" class="b">异常发现 · 根因归因 · 预测趋势</text><rect x="605" y="125" width="390" height="155" rx="18" class="alt"/><text x="800" y="170" text-anchor="middle" class="h">场景与智能体</text><text x="800" y="212" text-anchor="middle" class="b">专项Agent · 多步骤任务 · 人工审批</text><rect x="1045" y="145" width="390" height="155" rx="18" class="card"/><text x="1240" y="190" text-anchor="middle" class="h">数据能力扩展</text><text x="1240" y="232" text-anchor="middle" class="b">知识图谱 · 文档融合 · 跨源实时</text><rect x="165" y="590" width="390" height="155" rx="18" class="alt"/><text x="360" y="635" text-anchor="middle" class="h">用户体验升级</text><text x="360" y="677" text-anchor="middle" class="b">移动端 · 企业IM · 订阅 · 协作</text><rect x="605" y="610" width="390" height="155" rx="18" class="card"/><text x="800" y="655" text-anchor="middle" class="h">企业治理增强</text><text x="800" y="697" text-anchor="middle" class="b">多租户 · 模型评测 · 成本与配额</text><rect x="1045" y="590" width="390" height="155" rx="18" class="key"/><text x="1240" y="635" text-anchor="middle" class="h">生态开放</text><text x="1240" y="677" text-anchor="middle" class="b">OpenAPI · SDK · 插件 · BI工作流</text><rect x="280" y="805" width="1040" height="58" rx="12" fill="#f2f8f6" stroke="#17745f"/><text x="800" y="841" text-anchor="middle" class="h">V2.0可信底座：身份权限｜资产指标｜安全执行｜配置发布｜监控审计</text></svg>
